<?xml version="1.0" encoding="UTF-8" standalone="no"?>
<!-- Created with Inkscape (http://www.inkscape.org/) -->

<svg
   xmlns:dc="http://purl.org/dc/elements/1.1/"
   xmlns:cc="http://creativecommons.org/ns#"
   xmlns:rdf="http://www.w3.org/1999/02/22-rdf-syntax-ns#"
   xmlns:svg="http://www.w3.org/2000/svg"
   xmlns="http://www.w3.org/2000/svg"
   xmlns:sodipodi="http://sodipodi.sourceforge.net/DTD/sodipodi-0.dtd"
   xmlns:inkscape="http://www.inkscape.org/namespaces/inkscape"
   id="svg2"
   version="1.1"
   inkscape:version="0.48.3.1 r9886"
   width="523.73325"
   height="275.69187"
   xml:space="preserve"
   sodipodi:docname="TEDx_Pordenone.pdf"><metadata
     id="metadata8"><rdf:RDF><cc:Work
         rdf:about=""><dc:format>image/svg+xml</dc:format><dc:type
           rdf:resource="http://purl.org/dc/dcmitype/StillImage" /><dc:title></dc:title></cc:Work></rdf:RDF></metadata><defs
     id="defs6"><clipPath
       clipPathUnits="userSpaceOnUse"
       id="clipPath24"><path
         d="M 0,0 419,0 419,221 0,221 0,0 z"
         id="path26" /></clipPath></defs><sodipodi:namedview
     pagecolor="#ffffff"
     bordercolor="#666666"
     borderopacity="1"
     objecttolerance="10"
     gridtolerance="10"
     guidetolerance="10"
     inkscape:pageopacity="0"
     inkscape:pageshadow="2"
     inkscape:window-width="1352"
     inkscape:window-height="783"
     id="namedview4"
     showgrid="false"
     inkscape:zoom="0.85602816"
     inkscape:cx="670.42621"
     inkscape:cy="137.84593"
     inkscape:window-x="0"
     inkscape:window-y="0"
     inkscape:window-maximized="0"
     inkscape:current-layer="g10" /><g
     id="g10"
     inkscape:groupmode="layer"
     inkscape:label="TEDx"
     transform="matrix(1.25,0,0,-1.25,0,275.69187)"><g
       id="g3169"><g
         id="g12"><path
           id="path14"
           style="fill:#ff2b06;fill-opacity:1;fill-rule:nonzero;stroke:none"
           d="m 10.605,68.413 -7.566,10.906 7.211,0 4.047,-6.008 4.008,6.008 6.988,0 -7.566,-10.773 8.5,-12.239 -7.207,0 -4.809,7.254 -4.809,-7.254 -7.078,0 8.281,12.106 z"
           inkscape:connector-curvature="0" /><path
           id="path16"
           style="fill:#000000;fill-opacity:1;fill-rule:nonzero;stroke:none"
           d="m 56.18,60.401 -22.477,0 0,4.766 22.477,0 0,-4.766 z m 0,9.527 -22.477,0 0,4.762 22.477,0 0,-4.762 z"
           inkscape:connector-curvature="0" /><path
           id="path18"
           style="fill:#000000;fill-opacity:1;fill-rule:nonzero;stroke:none"
           d="m 67.082,79.319 6.32,0 0,-23.012 -6.32,0 0,23.012 z m 6.32,3.559 -6.32,0 0,5.211 6.32,0 0,-5.211 z"
           inkscape:connector-curvature="0" /><g
           transform="translate(0,-0.446503)"
           id="g20"><g
             id="g22" /><g
             id="g28"><g
               id="g30"
               clip-path="url(#clipPath24)"><g
                 id="g32"><path
                   id="path34"
                   style="fill:#000000;fill-opacity:1;fill-rule:nonzero;stroke:none"
                   d="m 77.496,79.766 6.012,0 0,-3.207 0.133,0 c 1.601,2.582 4.359,3.828 7.031,3.828 6.723,0 8.414,-3.782 8.414,-9.477 l 0,-14.156 -6.32,0 0,12.996 c 0,3.785 -1.114,5.652 -4.051,5.652 -3.426,0 -4.895,-1.914 -4.895,-6.586 l 0,-12.062 -6.324,0 0,23.012 z"
                   inkscape:connector-curvature="0" /><path
                   id="path36"
                   style="fill:#000000;fill-opacity:1;fill-rule:nonzero;stroke:none"
                   d="m 113.906,75.625 c -4.14,0 -5.566,-3.559 -5.566,-7.344 0,-3.605 1.648,-7.386 5.566,-7.386 4.184,0 5.43,3.648 5.43,7.433 0,3.738 -1.336,7.297 -5.43,7.297 m 5.52,-15.934 -0.09,0 c -1.469,-2.492 -4.051,-3.562 -6.988,-3.562 -6.946,0 -10.328,5.965 -10.328,12.332 0,6.187 3.429,11.926 10.195,11.926 2.715,0 5.383,-1.157 6.851,-3.426 l -0.043,0 0.09,0 0,11.574 6.321,0 0,-31.781 -6.008,0 0,2.937 z"
                   inkscape:connector-curvature="0" /><path
                   id="path38"
                   style="fill:#000000;fill-opacity:1;fill-rule:nonzero;stroke:none"
                   d="m 144.793,70.73 c -0.578,3.204 -1.957,4.895 -5.031,4.895 -4.004,0 -5.16,-3.117 -5.25,-4.895 l 10.281,0 z m -10.281,-4.007 c 0.176,-4.004 2.136,-5.828 5.652,-5.828 2.535,0 4.586,1.554 4.984,2.98 l 5.563,0 c -1.777,-5.43 -5.563,-7.746 -10.77,-7.746 -7.253,0 -11.75,4.988 -11.75,12.109 0,6.899 4.762,12.149 11.75,12.149 7.832,0 11.618,-6.586 11.172,-13.664 l -16.601,0 z"
                   inkscape:connector-curvature="0" /><path
                   id="path40"
                   style="fill:#000000;fill-opacity:1;fill-rule:nonzero;stroke:none"
                   d="m 171.051,68.191 c 0,3.653 -1.469,7.434 -5.52,7.434 -4.136,0 -5.472,-3.695 -5.472,-7.434 0,-3.738 1.421,-7.296 5.519,-7.296 4.137,0 5.473,3.558 5.473,7.296 m -17.09,11.575 6.008,0 0,-2.938 0.09,0 c 1.511,2.449 4.003,3.559 6.855,3.559 7.207,0 10.457,-5.828 10.457,-12.371 0,-6.145 -3.383,-11.887 -10.101,-11.887 -2.762,0 -5.387,1.203 -6.899,3.473 l -0.09,0 0,-10.95 -6.32,0 0,31.114 z"
                   inkscape:connector-curvature="0" /><path
                   id="path42"
                   style="fill:#000000;fill-opacity:1;fill-rule:nonzero;stroke:none"
                   d="m 195.754,70.73 c -0.582,3.204 -1.961,4.895 -5.031,4.895 -4.008,0 -5.164,-3.117 -5.254,-4.895 l 10.285,0 z m -10.285,-4.007 c 0.179,-4.004 2.136,-5.828 5.656,-5.828 2.535,0 4.582,1.554 4.984,2.98 l 5.563,0 c -1.781,-5.43 -5.563,-7.746 -10.77,-7.746 -7.257,0 -11.75,4.988 -11.75,12.109 0,6.899 4.762,12.149 11.75,12.149 7.832,0 11.618,-6.586 11.172,-13.664 l -16.605,0 z"
                   inkscape:connector-curvature="0" /><path
                   id="path44"
                   style="fill:#000000;fill-opacity:1;fill-rule:nonzero;stroke:none"
                   d="m 204.918,79.766 6.012,0 0,-3.207 0.132,0 c 1.602,2.582 4.36,3.828 7.032,3.828 6.722,0 8.414,-3.782 8.414,-9.477 l 0,-14.156 -6.32,0 0,12.996 c 0,3.785 -1.114,5.652 -4.051,5.652 -3.426,0 -4.895,-1.914 -4.895,-6.586 l 0,-12.062 -6.324,0 0,23.012 z"
                   inkscape:connector-curvature="0" /><path
                   id="path46"
                   style="fill:#000000;fill-opacity:1;fill-rule:nonzero;stroke:none"
                   d="m 241.328,75.625 c -4.14,0 -5.566,-3.559 -5.566,-7.344 0,-3.605 1.648,-7.386 5.566,-7.386 4.184,0 5.43,3.648 5.43,7.433 0,3.738 -1.336,7.297 -5.43,7.297 m 5.52,-15.934 -0.09,0 c -1.469,-2.492 -4.051,-3.562 -6.988,-3.562 -6.946,0 -10.329,5.965 -10.329,12.332 0,6.187 3.43,11.926 10.196,11.926 2.711,0 5.383,-1.157 6.855,-3.426 l -0.047,0 0.09,0 0,11.574 6.32,0 0,-31.781 -6.007,0 0,2.937 z"
                   inkscape:connector-curvature="0" /><path
                   id="path48"
                   style="fill:#000000;fill-opacity:1;fill-rule:nonzero;stroke:none"
                   d="m 272.215,70.73 c -0.578,3.204 -1.957,4.895 -5.031,4.895 -4.004,0 -5.161,-3.117 -5.25,-4.895 l 10.281,0 z m -10.281,-4.007 c 0.175,-4.004 2.136,-5.828 5.652,-5.828 2.535,0 4.586,1.554 4.984,2.98 l 5.567,0 c -1.782,-5.43 -5.567,-7.746 -10.774,-7.746 -7.254,0 -11.75,4.988 -11.75,12.109 0,6.899 4.762,12.149 11.75,12.149 7.832,0 11.617,-6.586 11.172,-13.664 l -16.601,0 z"
                   inkscape:connector-curvature="0" /><path
                   id="path50"
                   style="fill:#000000;fill-opacity:1;fill-rule:nonzero;stroke:none"
                   d="m 281.383,79.766 6.008,0 0,-3.207 0.132,0 c 1.606,2.582 4.364,3.828 7.036,3.828 6.718,0 8.41,-3.782 8.41,-9.477 l 0,-14.156 -6.321,0 0,12.996 c 0,3.785 -1.113,5.652 -4.05,5.652 -3.426,0 -4.895,-1.914 -4.895,-6.586 l 0,-12.062 -6.32,0 0,23.012 z"
                   inkscape:connector-curvature="0" /><path
                   id="path52"
                   style="fill:#000000;fill-opacity:1;fill-rule:nonzero;stroke:none"
                   d="m 314.895,79.766 4.628,0 0,-4.231 -4.628,0 0,-11.394 c 0,-2.137 0.535,-2.668 2.671,-2.668 0.668,0 1.289,0.043 1.957,0.175 l 0,-4.937 c -1.066,-0.18 -2.445,-0.227 -3.691,-0.227 -3.875,0 -7.258,0.891 -7.258,5.477 l 0,13.574 -3.828,0 0,4.231 3.828,0 0,6.898 6.321,0 0,-6.898 z"
                   inkscape:connector-curvature="0" /><path
                   id="path54"
                   style="fill:#000000;fill-opacity:1;fill-rule:nonzero;stroke:none"
                   d="m 321.84,88.535 6.32,0 0,-31.781 -6.32,0 0,31.781 z"
                   inkscape:connector-curvature="0" /><path
                   id="path56"
                   style="fill:#000000;fill-opacity:1;fill-rule:nonzero;stroke:none"
                   d="m 343.602,53.859 c -1.379,-3.695 -3.563,-5.207 -7.922,-5.207 -1.289,0 -2.582,0.09 -3.871,0.223 l 0,5.207 c 1.199,-0.09 2.445,-0.266 3.691,-0.223 2.184,0.223 2.895,2.493 2.184,4.317 l -8.102,21.59 6.766,0 5.207,-15.758 0.09,0 5.027,15.758 6.543,0 -9.613,-25.907 z"
                   inkscape:connector-curvature="0" /><path
                   id="path58"
                   style="fill:#000000;fill-opacity:1;fill-rule:nonzero;stroke:none"
                   d="m 13.531,13.309 c 4.317,0 5.61,3.695 5.61,7.343 0,3.696 -1.293,7.391 -5.61,7.391 -4.273,0 -5.562,-3.695 -5.562,-7.391 0,-3.648 1.289,-7.343 5.562,-7.343 m 0,19.496 c 7.254,0 11.93,-4.805 11.93,-12.153 0,-7.297 -4.676,-12.105 -11.93,-12.105 -7.211,0 -11.883,4.808 -11.883,12.105 0,7.348 4.672,12.153 11.883,12.153"
                   inkscape:connector-curvature="0" /><path
                   id="path60"
                   style="fill:#000000;fill-opacity:1;fill-rule:nonzero;stroke:none"
                   d="m 27.773,32.184 6.008,0 0,-4.274 0.09,0 c 1.156,2.891 4.274,4.895 7.344,4.895 0.445,0 0.976,-0.09 1.379,-0.223 l 0,-5.875 c -0.578,0.133 -1.512,0.223 -2.27,0.223 -4.629,0 -6.23,-3.34 -6.23,-7.391 l 0,-10.367 -6.321,0 0,23.012 z"
                   inkscape:connector-curvature="0" /><path
                   id="path62"
                   style="fill:#000000;fill-opacity:1;fill-rule:nonzero;stroke:none"
                   d="m 60.309,20.965 c 0,3.738 -1.293,7.078 -5.387,7.078 -3.563,0 -5.117,-3.117 -5.117,-6.543 0,-3.293 1.246,-6.898 5.117,-6.898 3.605,0 5.387,3.07 5.387,6.363 m 6.007,-10.324 c 0,-3.786 -1.336,-10.196 -11.929,-10.196 -4.539,0 -9.836,2.137 -10.149,7.391 l 6.278,0 c 0.578,-2.359 2.492,-3.16 4.718,-3.16 3.516,0 5.118,2.402 5.075,5.695 l 0,3.027 -0.09,0 C 58.84,10.996 56.078,9.836 53.32,9.836 c -6.898,0 -9.84,5.254 -9.84,11.574 0,5.965 3.43,11.395 9.883,11.395 3.028,0 5.34,-1.024 6.856,-3.692 l 0.09,0 0,3.071 6.007,0 0,-21.543 z"
                   inkscape:connector-curvature="0" /><path
                   id="path64"
                   style="fill:#000000;fill-opacity:1;fill-rule:nonzero;stroke:none"
                   d="m 83.941,20.43 c -1.07,-0.934 -3.296,-0.977 -5.253,-1.332 -1.958,-0.403 -3.739,-1.071 -3.739,-3.383 0,-2.36 1.824,-2.938 3.871,-2.938 4.942,0 5.121,3.914 5.121,5.297 l 0,2.356 z M 69.34,25.105 c 0.355,5.918 5.652,7.7 10.816,7.7 4.586,0 10.106,-1.024 10.106,-6.543 l 0,-11.973 c 0,-2.09 0.222,-4.184 0.8,-5.117 l -6.41,0 c -0.222,0.711 -0.398,1.469 -0.445,2.223 -2.004,-2.09 -4.941,-2.848 -7.746,-2.848 -4.359,0 -7.832,2.18 -7.832,6.902 0,5.207 3.918,6.449 7.832,6.985 3.875,0.578 7.48,0.445 7.48,3.027 0,2.715 -1.871,3.117 -4.097,3.117 -2.403,0 -3.961,-0.98 -4.184,-3.473 l -6.32,0 z"
                   inkscape:connector-curvature="0" /><path
                   id="path66"
                   style="fill:#000000;fill-opacity:1;fill-rule:nonzero;stroke:none"
                   d="m 94.266,32.184 6.007,0 0,-3.207 0.133,0 c 1.602,2.582 4.364,3.828 7.032,3.828 6.722,0 8.414,-3.782 8.414,-9.481 l 0,-14.152 -6.321,0 0,12.996 c 0,3.785 -1.113,5.652 -4.051,5.652 -3.425,0 -4.894,-1.914 -4.894,-6.59 l 0,-12.058 -6.32,0 0,23.012 z"
                   inkscape:connector-curvature="0" /><path
                   id="path68"
                   style="fill:#000000;fill-opacity:1;fill-rule:nonzero;stroke:none"
                   d="m 119.055,32.184 6.32,0 0,-23.012 -6.32,0 0,23.012 z m 6.32,3.558 -6.32,0 0,5.207 6.32,0 0,-5.207 z"
                   inkscape:connector-curvature="0" /><path
                   id="path70"
                   style="fill:#000000;fill-opacity:1;fill-rule:nonzero;stroke:none"
                   d="m 128.043,13.934 11.977,13.484 -11.082,0 0,4.766 19.402,0 0,-4.766 -11.973,-13.484 12.821,0 0,-4.762 -21.145,0 0,4.762 z"
                   inkscape:connector-curvature="0" /><path
                   id="path72"
                   style="fill:#000000;fill-opacity:1;fill-rule:nonzero;stroke:none"
                   d="m 167.168,23.145 c -0.578,3.207 -1.957,4.898 -5.031,4.898 -4.004,0 -5.16,-3.117 -5.25,-4.898 l 10.281,0 z m -10.281,-4.004 c 0.175,-4.008 2.136,-5.832 5.652,-5.832 2.535,0 4.586,1.558 4.984,2.984 l 5.563,0 c -1.777,-5.43 -5.563,-7.746 -10.77,-7.746 -7.254,0 -11.75,4.984 -11.75,12.105 0,6.903 4.762,12.153 11.75,12.153 7.832,0 11.618,-6.586 11.172,-13.664 l -16.601,0 z"
                   inkscape:connector-curvature="0" /><path
                   id="path74"
                   style="fill:#000000;fill-opacity:1;fill-rule:nonzero;stroke:none"
                   d="m 187.242,28.043 c -4.14,0 -5.566,-3.563 -5.566,-7.344 0,-3.605 1.648,-7.387 5.566,-7.387 4.184,0 5.43,3.649 5.43,7.43 0,3.738 -1.336,7.301 -5.43,7.301 m 5.52,-15.934 -0.09,0 c -1.469,-2.492 -4.051,-3.562 -6.988,-3.562 -6.946,0 -10.329,5.965 -10.329,12.328 0,6.187 3.43,11.93 10.196,11.93 2.711,0 5.383,-1.157 6.851,-3.426 l -0.043,0 0.09,0 0,11.57 6.321,0 0,-31.777 -6.008,0 0,2.937 z"
                   inkscape:connector-curvature="0" /><path
                   id="path76"
                   style="fill:#000000;fill-opacity:1;fill-rule:nonzero;stroke:none"
                   d="m 221.82,35.074 -9.523,0 0,5.875 26.039,0 0,-5.875 -9.527,0 0,-25.902 -6.989,0 0,25.902 z"
                   inkscape:connector-curvature="0" /><path
                   id="path78"
                   style="fill:#000000;fill-opacity:1;fill-rule:nonzero;stroke:none"
                   d="m 241.094,40.949 23.765,0 0,-5.875 -16.781,0 0,-6.808 15.402,0 0,-5.43 -15.402,0 0,-7.789 17.137,0 0,-5.875 -24.121,0 0,31.777 z"
                   inkscape:connector-curvature="0" /><path
                   id="path80"
                   style="fill:#000000;fill-opacity:1;fill-rule:nonzero;stroke:none"
                   d="m 275.141,15.047 6.23,0 c 4.051,0 7.922,2.492 7.922,9.523 0,6.41 -2.223,10.504 -9.168,10.504 l -4.984,0 0,-20.027 z m -6.989,25.902 13.711,0 c 8.235,0 14.418,-5.164 14.418,-15.711 0,-9.211 -4.715,-16.066 -14.418,-16.066 l -13.711,0 0,31.777 z"
                   inkscape:connector-curvature="0" /><path
                   id="path82"
                   style="fill:#000000;fill-opacity:1;fill-rule:nonzero;stroke:none"
                   d="m 326.547,23.145 c -0.578,3.207 -1.957,4.898 -5.031,4.898 -4.004,0 -5.161,-3.117 -5.25,-4.898 l 10.281,0 z m -10.281,-4.004 c 0.175,-4.008 2.136,-5.832 5.652,-5.832 2.535,0 4.586,1.558 4.984,2.984 l 5.563,0 c -1.777,-5.43 -5.563,-7.746 -10.77,-7.746 -7.254,0 -11.75,4.984 -11.75,12.105 0,6.903 4.762,12.153 11.75,12.153 7.832,0 11.617,-6.586 11.172,-13.664 l -16.601,0 z"
                   inkscape:connector-curvature="0" /><path
                   id="path84"
                   style="fill:#000000;fill-opacity:1;fill-rule:nonzero;stroke:none"
                   d="m 347.555,9.172 -7.035,0 -7.875,23.012 6.628,0 4.852,-15.715 0.09,0 4.851,15.715 6.278,0 -7.789,-23.012 z"
                   inkscape:connector-curvature="0" /><path
                   id="path86"
                   style="fill:#000000;fill-opacity:1;fill-rule:nonzero;stroke:none"
                   d="m 371.676,23.145 c -0.578,3.207 -1.957,4.898 -5.028,4.898 -4.007,0 -5.164,-3.117 -5.253,-4.898 l 10.281,0 z m -10.281,-4.004 c 0.175,-4.008 2.136,-5.832 5.652,-5.832 2.539,0 4.586,1.558 4.984,2.984 l 5.567,0 c -1.782,-5.43 -5.567,-7.746 -10.774,-7.746 -7.254,0 -11.75,4.984 -11.75,12.105 0,6.903 4.762,12.153 11.75,12.153 7.832,0 11.617,-6.586 11.172,-13.664 l -16.601,0 z"
                   inkscape:connector-curvature="0" /><path
                   id="path88"
                   style="fill:#000000;fill-opacity:1;fill-rule:nonzero;stroke:none"
                   d="m 380.844,32.184 6.008,0 0,-3.207 0.136,0 c 1.602,2.582 4.36,3.828 7.032,3.828 6.718,0 8.414,-3.782 8.414,-9.481 l 0,-14.152 -6.321,0 0,12.996 c 0,3.785 -1.117,5.652 -4.051,5.652 -3.429,0 -4.898,-1.914 -4.898,-6.59 l 0,-12.058 -6.32,0 0,23.012 z"
                   inkscape:connector-curvature="0" /><path
                   id="path90"
                   style="fill:#000000;fill-opacity:1;fill-rule:nonzero;stroke:none"
                   d="m 414.359,32.184 4.629,0 0,-4.231 -4.629,0 0,-11.394 c 0,-2.137 0.532,-2.672 2.668,-2.672 0.668,0 1.293,0.047 1.961,0.179 l 0,-4.941 c -1.07,-0.176 -2.449,-0.219 -3.695,-0.219 -3.875,0 -7.254,0.887 -7.254,5.473 l 0,13.574 -3.828,0 0,4.231 3.828,0 0,6.898 6.32,0 0,-6.898 z"
                   inkscape:connector-curvature="0" /><path
                   id="path92"
                   style="fill:#ff2b06;fill-opacity:1;fill-rule:nonzero;stroke:none"
                   d="m 29.656,193.676 -29.656,0 0,27.121 91.879,0 0,-27.121 -29.645,0 0,-78.696 -32.578,0 0,78.696 z"
                   inkscape:connector-curvature="0" /><path
                   id="path94"
                   style="fill:#ff2b06;fill-opacity:1;fill-rule:nonzero;stroke:none"
                   d="m 96.945,220.797 89.192,0 0,-27.121 -56.59,0 0,-13.188 56.59,0 0,-25.203 -56.59,0 0,-13.187 56.605,0 0,-27.118 -89.207,0 0,105.817 z"
                   inkscape:connector-curvature="0" /><path
                   id="path96"
                   style="fill:#ff2b06;fill-opacity:1;fill-rule:nonzero;stroke:none"
                   d="m 224.223,142.102 12.75,0 c 20.308,0 23.277,16.453 23.277,26.394 0,6.656 -2.086,25.18 -25.652,25.18 l -10.375,0 0,-51.574 z m -32.602,78.695 53.5,0 c 35.27,0 47.731,-26.086 47.731,-52.754 0,-32.465 -17.192,-53.063 -54.098,-53.063 l -47.133,0 0,105.817 z"
                   inkscape:connector-curvature="0" /><path
                   id="path98"
                   style="fill:#ff2b06;fill-opacity:1;fill-rule:nonzero;stroke:none"
                   d="m 339.699,155.758 -9.945,16.492 -9.699,-16.492 -23.887,0 22.676,33.344 -21.836,31.898 23.894,0 8.852,-15.766 9.101,15.766 23.887,0 -21.828,-31.898 22.676,-33.344 -23.891,0 z"
                   inkscape:connector-curvature="0" /></g></g></g></g></g><text
         transform="scale(1,-1)"
         sodipodi:linespacing="125%"
         id="text3075"
         y="-118.66251"
         x="377.21649"
         style="font-size:140.01829529px;font-style:normal;font-weight:normal;line-height:125%;letter-spacing:0px;word-spacing:0px;fill:#000000;fill-opacity:1;stroke:none;font-family:Sans"
         xml:space="preserve"><tspan
           dx="0"
           dy="0"
           style="font-style:normal;font-variant:normal;font-weight:normal;font-stretch:normal;letter-spacing:-2.4000001px;font-family:FreeSans;-inkscape-font-specification:FreeSans"
           y="-118.66251"
           x="377.21649"
           id="tspan3077"
           sodipodi:role="line">Pordenone</tspan></text>
</g></g></svg>